<svg xmlns="http://www.w3.org/2000/svg" xmlns:xlink="http://www.w3.org/1999/xlink" width="100%" height="100%">
  <defs>
    <pattern id="pattern" width="23.09" height="20" viewBox="0 0 34.64101615137755,30" patternUnits="userSpaceOnUse" patternTransform="rotate(135) ">
      <rect id="pattern-background" width="400%" height="400%" fill="rgba(33, 32, 38,1)"/>
      <path fill="rgba(0, 0, 0,0)" d="M-20 -20 h200 v200 h-200 M34.21 25.25L25.98 20.5L17.75 25.25L17.75 34.75L25.98 39.5L34.21 34.75zM16.89 25.25L8.66 20.5L0.43 25.25L0.43 34.75L8.66 39.5L16.89 34.75zM8.23 10.25L0 5.5L-8.23 10.25L-8.23 19.75L0 24.5L8.23 19.75zM16.89 -4.75L8.66 -9.5L0.43 -4.75L0.43 4.75L8.66 9.5L16.89 4.75zM34.21 -4.75L25.98 -9.5L17.75 -4.75L17.75 4.75L25.98 9.5L34.21 4.75zM42.87 10.25L34.64 5.5L26.41 10.25L26.41 19.75L34.64 24.5L42.87 19.75zM25.55 10.25L17.32 5.5L9.09 10.25L9.09 19.75L17.32 24.5L25.55 19.75z"/>
      <path filter="url(#filter2pattern)" fill="rgba(242, 159, 5,0.1)" d="M-20 -20 h200 v200 h-200 M34.21 25.25L25.98 20.5L17.75 25.25L17.75 34.75L25.98 39.5L34.21 34.75zM16.89 25.25L8.66 20.5L0.43 25.25L0.43 34.75L8.66 39.5L16.89 34.75zM8.23 10.25L0 5.5L-8.23 10.25L-8.23 19.75L0 24.5L8.23 19.75zM16.89 -4.75L8.66 -9.5L0.43 -4.75L0.43 4.75L8.66 9.5L16.89 4.75zM34.21 -4.75L25.98 -9.5L17.75 -4.75L17.75 4.75L25.98 9.5L34.21 4.75zM42.87 10.25L34.64 5.5L26.41 10.25L26.41 19.75L34.64 24.5L42.87 19.75zM51.53 25.25L43.3 20.5L35.07 25.25L35.07 34.75L43.3 39.5L51.53 34.75zM25.55 40.25L17.32 35.5L9.09 40.25L9.09 49.75L17.32 54.5L25.55 49.75zM-0.43 25.25L-8.66 20.5L-16.89 25.25L-16.89 34.75L-8.66 39.5L-0.43 34.75zM-0.43 -4.75L-8.66 -9.5L-16.89 -4.75L-16.89 4.75L-8.66 9.5L-0.43 4.75zM25.55 -19.75L17.32 -24.5L9.09 -19.75L9.09 -10.25L17.32 -5.5L25.55 -10.25zM51.53 -4.75L43.3 -9.5L35.07 -4.75L35.07 4.75L43.3 9.5L51.53 4.75zM42.87 40.25L34.64 35.5L26.41 40.25L26.41 49.75L34.64 54.5L42.87 49.75zM8.23 40.25L0 35.5L-8.23 40.25L-8.23 49.75L0 54.5L8.23 49.75zM-9.09 10.25L-17.32 5.5L-25.55 10.25L-25.55 19.75L-17.32 24.5L-9.09 19.75zM8.23 -19.75L0 -24.5L-8.23 -19.75L-8.23 -10.25L0 -5.5L8.23 -10.25zM42.87 -19.75L34.64 -24.5L26.41 -19.75L26.41 -10.25L34.64 -5.5L42.87 -10.25zM60.19 10.25L51.96 5.5L43.73 10.25L43.73 19.75L51.96 24.5L60.19 19.75zM25.55 10.25L17.32 5.5L9.09 10.25L9.09 19.75L17.32 24.5L25.55 19.75z"/>
    </pattern>
    <filter id="filter2pattern">
      <feTurbulence baseFrequency="0" numOctaves="2" type="fractalNoise" result="result1"/>
      <feDisplacementMap in2="result1" scale="0" result="result2" xChannelSelector="R" in="SourceGraphic"/>
      <feComposite in2="result2" in="SourceGraphic" operator="atop" result="fbSourceGraphic"/>
    </filter>
  </defs>
  <rect fill="url(#pattern)" height="100%" width="100%"/>
</svg>